<svg xmlns="http://www.w3.org/2000/svg" viewBox="0 0 50 50" fill="#f7f7f7">
    <path
        d="m25.09463,9.47682c-0.85086,0 -1.53709,0.6893 -1.53709,1.53862l0,14.18765l-9.30252,4.06812c-0.77854,0.34157 -1.13243,1.24936 -0.79085,2.02791c0.25233,0.57698 0.81547,0.92164 1.40784,0.92164c0.20618,0 0.41697,-0.04154 0.61699,-0.13078l10.19493,-4.45893c0.00769,-0.00308 0.01385,-0.00615 0.02,-0.00923l0.00615,-0.00308c0.02308,-0.00923 0.03539,-0.03077 0.05693,-0.03847c0.16002,-0.08001 0.30926,-0.17386 0.42928,-0.30003c0.05231,-0.05231 0.08155,-0.12001 0.12155,-0.18002c0.07385,-0.09847 0.1554,-0.19541 0.20002,-0.31388c0.03693,-0.09232 0.04,-0.19233 0.05847,-0.2908c0.02,-0.09847 0.05847,-0.18617 0.05847,-0.28618l0,-15.19545c0,-0.84778 -0.6893,-1.53709 -1.54016,-1.53709zm24.04255,2.62643c0,-5.89601 -4.77743,-10.67497 -10.67498,-10.67497c-2.98185,0 -5.67137,1.22474 -7.6008,3.19572c-1.84173,-0.49082 -3.76809,-0.77701 -5.76523,-0.77701c-2.05252,0 -4.0312,0.30003 -5.91909,0.81701c-1.93713,-1.99252 -4.64049,-3.23573 -7.63927,-3.23573c-5.89601,0 -10.67498,4.77897 -10.67498,10.67497c0,2.83876 1.11704,5.41134 2.92493,7.32385c-0.68161,2.13869 -1.05396,4.41585 -1.05396,6.78225c0,12.35054 10.01183,22.36236 22.36237,22.36236c12.35054,0 22.36237,-10.01183 22.36237,-22.36236c0,-2.42333 -0.3985,-4.74973 -1.11089,-6.93612c1.72941,-1.89405 2.78953,-4.40508 2.78953,-7.16999zm-24.04101,31.85106c-9.78719,0 -17.74649,-7.96084 -17.74649,-17.74495c0,-9.78565 7.9593,-17.74649 17.74649,-17.74649c9.78719,0 17.74496,7.9593 17.74496,17.74649c0,9.78719 -7.96084,17.74495 -17.74496,17.74495z" />
</svg>