<svg xmlns="http://www.w3.org/2000/svg" viewBox="0 0 50 50">
    <path id="github"
        d="m44.69521,24.21556c-1.9199,-0.32291 -3.91813,-0.53553 -5.54069,-0.59307l-0.28615,-0.00959c0.06554,-0.14387 0.1151,-0.24139 0.13108,-0.25577c0.03517,-0.02877 0.06394,-0.15027 0.06714,-0.26856c0,-0.06554 0.02877,-0.27815 0.07353,-0.5595c0.43961,0.01599 1.02309,0.02877 1.65933,0.03357c2.45702,0.01918 5.02755,0.21741 6.79079,0.52913c1.05027,0.18544 1.39716,0.17904 0.62185,-0.00959c-0.7849,-0.19023 -3.11244,-0.46998 -4.9668,-0.59148c-1.2453,-0.08472 -3.03092,-0.1167 -4.08278,-0.09911c0.03037,-0.18224 0.06554,-0.38526 0.10231,-0.59307c0.14867,-0.80409 0.19822,-1.61297 0.20142,-3.22275c0.0032,-2.49699 -0.13108,-3.18438 -0.94476,-4.83572c-0.33091,-0.6746 -0.70498,-1.2469 -1.15738,-1.76484c0.39485,-1.16537 0.38526,-2.97017 -0.02398,-4.55277c-0.3373,-1.29805 -0.4556,-1.38118 -1.63215,-1.1318c-0.99752,0.21261 -1.79681,0.50196 -2.8215,1.0183c-0.48437,0.24458 -1.15258,0.62505 -1.63695,0.92398c-1.26288,-0.44441 -2.56893,-0.73855 -3.96289,-0.89681c-1.41315,-0.15986 -4.87728,-0.07034 -6.10659,0.15666c-1.20214,0.2222 -2.28438,0.49396 -3.26431,0.81688c-0.48917,-0.30213 -1.19894,-0.70977 -1.70569,-0.96554c-1.02949,-0.51794 -1.82878,-0.80569 -2.82949,-1.0183c-1.17336,-0.25098 -1.29485,-0.16625 -1.63056,1.1318c-0.41563,1.60338 -0.41883,3.43856 -0.00799,4.60073c0.04796,0.13268 0.07673,0.227 0.08792,0.30053c-1.66572,2.09734 -2.20924,4.44406 -1.84796,7.71956c0.09432,0.85364 0.23979,1.63695 0.44281,2.35471c-1.06306,-0.00639 -2.57532,0.03197 -3.66715,0.10231c-1.85756,0.12309 -4.18509,0.39965 -4.97,0.58988c-0.77371,0.18863 -0.43002,0.19503 0.62185,0.01119c1.76324,-0.31013 4.33536,-0.51155 6.79079,-0.52913c0.46359,-0.0016 0.89681,-0.01119 1.26928,-0.02078c0.1119,0.37886 0.23979,0.74014 0.38526,1.08384l-0.01119,0.0016c-1.62256,0.05595 -3.6192,0.26856 -5.53909,0.59148c-1.44032,0.24139 -3.56644,0.72416 -3.81422,0.86324c-0.26057,0.14547 -0.04796,0.1135 1.06785,-0.16945c2.035,-0.51474 4.68066,-0.90959 7.95775,-1.18455l0.36608,-0.03197c0.70338,1.63375 1.78722,2.88065 3.31866,3.85259c0.93677,0.59627 2.43784,1.20853 3.19397,1.30444c0.20782,0.02558 0.81208,0.15027 1.34281,0.27496c0.53233,0.12469 1.57301,0.31172 2.31155,0.41883l0.01758,0c-0.01439,0.00959 -0.02718,0.01599 -0.03996,0.02558c-0.89521,0.46519 -1.47709,1.18935 -1.86875,2.32914c-0.17584,0.05275 -0.39485,0.12469 -0.63144,0.20622c-0.84565,0.28775 -1.17496,0.34689 -2.0318,0.35329c-0.88881,0.00639 -1.09983,-0.03197 -1.63056,-0.28135c-0.77212,-0.35968 -1.49148,-1.0215 -1.97105,-1.8112c-0.80089,-1.32043 -2.18526,-2.254 -3.33944,-2.254c-0.98633,0 -1.17336,0.39965 -0.46039,0.98313c1.07425,0.87762 1.87674,1.77283 2.20605,2.45702c0.18544,0.38366 0.46998,0.97674 0.63464,1.31723c0.17425,0.36288 0.54672,0.85524 0.9016,1.19574c0.83446,0.7961 1.64015,1.17656 2.84228,1.3556c0.80569,0.1183 1.00391,0.1183 1.95507,-0.0032c0.45879,-0.05595 0.84565,-0.12149 1.19254,-0.20302c0,0.39005 0,0.83926 0,1.36679c0,2.8231 -0.03357,3.7311 -0.14547,3.99646c-0.21101,0.50515 -0.68419,1.02469 -1.14459,1.25809c-0.45879,0.23339 -0.60107,0.49077 -0.40764,0.72736c0.10711,0.12789 0.31332,0.15027 1.00551,0.10551c1.31404,-0.08153 2.24281,-0.5675 2.71599,-1.42434c0.15187,-0.27496 0.18703,-0.82807 0.23499,-3.70552c0.05115,-3.12204 0.07353,-3.42257 0.27656,-3.86857c0.12309,-0.26537 0.30053,-0.55311 0.39965,-0.63144c0.16625,-0.13748 0.17744,0.13428 0.17744,3.86857c-0.0016,4.12115 -0.04316,4.61831 -0.4556,5.41121c-0.09272,0.18064 -0.26856,0.41563 -0.39165,0.52753c-0.21581,0.19663 -0.30693,0.70018 -0.15666,0.85205c0.24778,0.24618 1.48988,-0.14068 2.16768,-0.6746c1.15418,-0.91439 1.29166,-1.67052 1.30125,-7.13129l0.0048,-3.20356l0.35009,0.03357l0.35009,0.03197l0.05755,4.18989c0.06554,4.71742 0.07513,4.78616 0.87762,5.69735c0.4556,0.51474 0.91439,0.79929 1.66093,1.0215c0.99912,0.30053 1.29965,-0.16306 0.62824,-0.96714c-0.73055,-0.87443 -0.76572,-1.20853 -0.72576,-6.38475c0.02718,-3.31866 0.02718,-3.31866 0.24139,-3.12523c0.4508,0.40924 0.53712,1.08064 0.53712,4.19309c0,3.86538 0.1103,4.23305 1.47549,4.90765c0.63784,0.31172 0.81688,0.35009 1.63375,0.35329c0.86963,0.0032 0.92238,-0.00959 0.95435,-0.23659c0.02718,-0.18384 -0.07993,-0.30853 -0.48597,-0.55631c-0.53233,-0.32771 -0.9016,-0.74654 -1.1334,-1.27407c-0.08792,-0.20302 -0.14707,-1.53304 -0.18703,-4.27142c-0.05755,-3.82541 -0.07034,-3.99966 -0.30853,-4.59913c-0.32132,-0.80569 -0.81208,-1.44192 -1.43393,-1.86395c-0.16146,-0.10551 -0.32291,-0.19343 -0.53233,-0.25897c0.25737,-0.02558 0.50675,-0.05275 0.74814,-0.08792c2.51297,-0.3341 3.8414,-0.61226 4.90765,-1.02469c2.2556,-0.86803 3.78065,-2.30995 4.60712,-4.35454c0.07353,-0.18224 0.14707,-0.35489 0.20941,-0.49396l0.63624,0.05275c3.2787,0.27656 5.92435,0.67141 7.95935,1.18775c1.11581,0.28295 1.32842,0.31652 1.06785,0.16785c-0.24298,-0.13588 -2.3691,-0.61705 -3.80783,-0.85844zm-9.61389,-0.04956c-0.37247,0.81848 -1.41155,1.87034 -2.25081,2.28278c-0.82807,0.40924 -2.12612,0.72096 -3.59681,0.86963c-1.00551,0.10231 -6.61334,0.13268 -7.53892,0.04156c-3.06449,-0.30053 -4.78137,-0.89041 -6.04744,-2.07177c-1.19894,-1.12221 -1.75844,-2.64566 -1.66093,-4.5208c0.06234,-1.17336 0.34529,-1.91031 1.08544,-2.80552c0.673,-0.81528 1.38118,-1.31883 2.21564,-1.57461c0.69858,-0.21421 2.84228,-0.23339 5.72453,-0.04796c1.27407,0.08153 2.32754,0.08153 3.60001,0c3.01493,-0.19023 5.02755,-0.16945 5.77089,0.06075c1.16857,0.36128 2.23322,1.33322 2.87266,2.62807c0.28775,0.57869 0.3437,0.82487 0.38526,1.71848c0.05755,1.23091 -0.15506,2.53855 -0.5595,3.41937zm-15.20254,-5.28492c-1.71528,-0.30053 -2.69521,2.63607 -1.37958,4.13554c0.62505,0.71137 1.17976,0.82807 1.87354,0.39645c0.64263,-0.40124 0.99112,-1.15098 0.99112,-2.12292c0,-1.29645 -0.58988,-2.24921 -1.48508,-2.40907zm10.41158,0.17584c-1.71528,-0.30053 -2.69681,2.63287 -1.38118,4.13394c0.62665,0.71137 1.17976,0.82967 1.87514,0.39485c0.64103,-0.39965 0.99112,-1.15098 0.99112,-2.12292c0,-1.29166 -0.58988,-2.24761 -1.48508,-2.40587zm-4.61351,5.77409c-0.03677,0.1183 -0.21581,0.29414 -0.39645,0.38846c-0.4572,0.23499 -0.7865,0.15346 -1.26928,-0.28615c-0.29894,-0.27016 -0.43481,-0.41243 -0.52593,-0.12949c-0.08472,0.26217 0.4476,0.7881 0.85844,0.94956c0.37727,0.15027 0.64743,0.15506 1.05666,-0.01599c0.40604,-0.16945 0.76093,-0.62505 0.76093,-0.92078c0,-0.27496 -0.39485,-0.26217 -0.48437,0.01439zm-0.50675,-0.91919c0.26057,-0.2302 0.31972,-0.70338 0.07034,-0.95435s-0.75613,-0.21261 -0.95435,0.06874c-0.2302,0.32931 -0.10711,0.58029 0.05755,0.84725c0.25577,0.19822 0.59947,0.23819 0.82647,0.03837z" />
</svg>