<svg xmlns="http://www.w3.org/2000/svg" viewBox="0 0 50 50">
    <path id="linkedin"
        d="m44.59869,1.83792l-39.19739,0c-1.967,0 -3.5634,1.5964 -3.5634,3.5634l0,39.19736c0,1.967 1.5964,3.5634 3.5634,3.5634l39.19739,0c1.967,0 3.5634,-1.5964 3.5634,-3.5634l0,-39.19736c0,-1.967 -1.5964,-3.5634 -3.5634,-3.5634zm-28.56242,42.14786l-7.1268,0l0,-24.94378l7.1268,0l0,24.94378zm-3.5634,-27.61633c-2.46409,0 -4.45425,-1.99372 -4.45425,-4.45425s1.99016,-4.45425 4.45425,-4.45425s4.45425,1.99372 4.45425,4.45425s-1.99016,4.45425 -4.45425,4.45425zm28.50719,27.61633l-7.1268,0l0,-15.14444c0,-0.71268 -0.71802,-1.87969 -1.22403,-2.1612c-0.66814,-0.37594 -2.24672,-0.40801 -2.96653,-0.06058l-2.93624,1.41289l0,15.95333l-7.1268,0l0,-24.94378l7.1268,0l0,1.09396c2.82043,-1.28817 6.73482,-1.16167 9.38956,0.32783c2.81865,1.57858 4.86404,5.10278 4.86404,8.37755l0,15.14444z" />
</svg>