<svg xmlns="http://www.w3.org/2000/svg" viewBox="0 0 50 50" fill="#ff9900">
    <path id="logo"
        d="m24.99999,7.01835c-13.24142,0 -23.97553,8.05107 -23.97553,17.98101c0,3.39316 1.269,6.56423 3.45227,9.27269l-3.45227,7.56903l9.61242,-2.46559c4.00559,2.25257 8.96858,3.60617 14.3631,3.60617c13.24141,0 23.97555,-8.0511 23.97555,-17.9823s-10.73413,-17.98101 -23.97555,-17.98101l0,0zm-3.93212,24.88619l-4.00398,4.00069l-11.01143,-11.01306l11.00978,-11.01564l4.00562,4.00984l-7.00583,7.0058l7.00583,7.01237zm12.10959,3.99548l-4.00233,-4.00592l7.00776,-7.00449l-7.00776,-7.00715l4.00233,-4.00592l11.01144,11.00521l-11.01144,11.01828z" />
</svg>